<svg width="139" height="57" viewBox="0 0 139 57" fill="none" xmlns="http://www.w3.org/2000/svg">
<path d="M4.418 45V12.1H19.834C23.782 12.1 26.79 12.8833 28.858 14.45C30.926 15.9853 31.96 18.0533 31.96 20.654C31.96 22.4087 31.5527 23.9127 30.738 25.166C29.9233 26.388 28.8267 27.3437 27.448 28.033C26.1007 28.691 24.628 29.02 23.03 29.02L23.876 27.328C25.7247 27.328 27.3853 27.6727 28.858 28.362C30.3307 29.02 31.49 29.9913 32.336 31.276C33.2133 32.5607 33.652 34.1587 33.652 36.07C33.652 38.89 32.571 41.0833 30.409 42.65C28.247 44.2167 25.0353 45 20.774 45H4.418ZM10.528 40.206H20.398C22.6853 40.206 24.44 39.83 25.662 39.078C26.884 38.326 27.495 37.1197 27.495 35.459C27.495 33.8297 26.884 32.639 25.662 31.887C24.44 31.1037 22.6853 30.712 20.398 30.712H10.058V25.965H19.176C21.3067 25.965 22.936 25.589 24.064 24.837C25.2233 24.085 25.803 22.957 25.803 21.453C25.803 19.9177 25.2233 18.774 24.064 18.022C22.936 17.27 21.3067 16.894 19.176 16.894H10.528V40.206Z" fill="white"/>
<path d="M38.05 33V19.65H41.175V33H38.05ZM39.625 17.45C39.0417 17.45 38.5583 17.2667 38.175 16.9C37.8083 16.5333 37.625 16.0917 37.625 15.575C37.625 15.0417 37.8083 14.6 38.175 14.25C38.5583 13.8833 39.0417 13.7 39.625 13.7C40.2083 13.7 40.6833 13.875 41.05 14.225C41.4333 14.5583 41.625 14.9833 41.625 15.5C41.625 16.05 41.4417 16.5167 41.075 16.9C40.7083 17.2667 40.225 17.45 39.625 17.45ZM50.3016 33.175C48.8349 33.175 47.7016 32.8 46.9016 32.05C46.1016 31.2833 45.7016 30.1583 45.7016 28.675V16.7H48.8266V28.6C48.8266 29.2333 48.9849 29.725 49.3016 30.075C49.6349 30.425 50.0932 30.6 50.6766 30.6C51.3766 30.6 51.9599 30.4167 52.4266 30.05L53.3016 32.275C52.9349 32.575 52.4849 32.8 51.9516 32.95C51.4182 33.1 50.8682 33.175 50.3016 33.175ZM43.5016 22.25V19.75H52.4016V22.25H43.5016ZM61.4328 33.175C60.0661 33.175 58.8495 32.8833 57.7828 32.3C56.7161 31.7 55.8745 30.8833 55.2578 29.85C54.6411 28.8167 54.3328 27.6417 54.3328 26.325C54.3328 24.9917 54.6411 23.8167 55.2578 22.8C55.8745 21.7667 56.7161 20.9583 57.7828 20.375C58.8495 19.7917 60.0661 19.5 61.4328 19.5C62.8161 19.5 64.0411 19.7917 65.1078 20.375C66.1911 20.9583 67.0328 21.7583 67.6328 22.775C68.2495 23.7917 68.5578 24.975 68.5578 26.325C68.5578 27.6417 68.2495 28.8167 67.6328 29.85C67.0328 30.8833 66.1911 31.7 65.1078 32.3C64.0411 32.8833 62.8161 33.175 61.4328 33.175ZM61.4328 30.5C62.1995 30.5 62.8828 30.3333 63.4828 30C64.0828 29.6667 64.5495 29.1833 64.8828 28.55C65.2328 27.9167 65.4078 27.175 65.4078 26.325C65.4078 25.4583 65.2328 24.7167 64.8828 24.1C64.5495 23.4667 64.0828 22.9833 63.4828 22.65C62.8828 22.3167 62.2078 22.15 61.4578 22.15C60.6911 22.15 60.0078 22.3167 59.4078 22.65C58.8245 22.9833 58.3578 23.4667 58.0078 24.1C57.6578 24.7167 57.4828 25.4583 57.4828 26.325C57.4828 27.175 57.6578 27.9167 58.0078 28.55C58.3578 29.1833 58.8245 29.6667 59.4078 30C60.0078 30.3333 60.6828 30.5 61.4328 30.5ZM79.1211 19.5C80.1878 19.5 81.1378 19.7083 81.9711 20.125C82.8211 20.5417 83.4878 21.1833 83.9711 22.05C84.4544 22.9 84.6961 24 84.6961 25.35V33H81.5711V25.75C81.5711 24.5667 81.2878 23.6833 80.7211 23.1C80.1711 22.5167 79.3961 22.225 78.3961 22.225C77.6628 22.225 77.0128 22.375 76.4461 22.675C75.8794 22.975 75.4378 23.425 75.1211 24.025C74.8211 24.6083 74.6711 25.35 74.6711 26.25V33H71.5461V19.65H74.5211V23.25L73.9961 22.15C74.4628 21.3 75.1378 20.65 76.0211 20.2C76.9211 19.7333 77.9544 19.5 79.1211 19.5ZM93.6854 33.175C92.2187 33.175 91.0854 32.8 90.2854 32.05C89.4854 31.2833 89.0854 30.1583 89.0854 28.675V16.7H92.2104V28.6C92.2104 29.2333 92.3687 29.725 92.6854 30.075C93.0187 30.425 93.477 30.6 94.0604 30.6C94.7604 30.6 95.3437 30.4167 95.8104 30.05L96.6854 32.275C96.3187 32.575 95.8687 32.8 95.3354 32.95C94.802 33.1 94.252 33.175 93.6854 33.175ZM86.8854 22.25V19.75H95.7854V22.25H86.8854ZM99.2561 33V19.65H102.231V23.325L101.881 22.25C102.281 21.35 102.906 20.6667 103.756 20.2C104.623 19.7333 105.698 19.5 106.981 19.5V22.475C106.848 22.4417 106.723 22.425 106.606 22.425C106.489 22.4083 106.373 22.4 106.256 22.4C105.073 22.4 104.131 22.75 103.431 23.45C102.731 24.1333 102.381 25.1583 102.381 26.525V33H99.2561ZM115.785 33.175C114.302 33.175 113.002 32.8833 111.885 32.3C110.785 31.7 109.927 30.8833 109.31 29.85C108.71 28.8167 108.41 27.6417 108.41 26.325C108.41 24.9917 108.702 23.8167 109.285 22.8C109.885 21.7667 110.702 20.9583 111.735 20.375C112.785 19.7917 113.977 19.5 115.31 19.5C116.61 19.5 117.768 19.7833 118.785 20.35C119.802 20.9167 120.602 21.7167 121.185 22.75C121.768 23.7833 122.06 25 122.06 26.4C122.06 26.5333 122.052 26.6833 122.035 26.85C122.035 27.0167 122.027 27.175 122.01 27.325H110.885V25.25H120.36L119.135 25.9C119.152 25.1333 118.993 24.4583 118.66 23.875C118.327 23.2917 117.868 22.8333 117.285 22.5C116.718 22.1667 116.06 22 115.31 22C114.543 22 113.868 22.1667 113.285 22.5C112.718 22.8333 112.268 23.3 111.935 23.9C111.618 24.4833 111.46 25.175 111.46 25.975V26.475C111.46 27.275 111.643 27.9833 112.01 28.6C112.377 29.2167 112.893 29.6917 113.56 30.025C114.227 30.3583 114.993 30.525 115.86 30.525C116.61 30.525 117.285 30.4083 117.885 30.175C118.485 29.9417 119.018 29.575 119.485 29.075L121.16 31C120.56 31.7 119.802 32.2417 118.885 32.625C117.985 32.9917 116.952 33.175 115.785 33.175ZM131.337 33.175C129.853 33.175 128.553 32.8833 127.437 32.3C126.337 31.7 125.478 30.8833 124.862 29.85C124.262 28.8167 123.962 27.6417 123.962 26.325C123.962 24.9917 124.253 23.8167 124.837 22.8C125.437 21.7667 126.253 20.9583 127.287 20.375C128.337 19.7917 129.528 19.5 130.862 19.5C132.162 19.5 133.32 19.7833 134.337 20.35C135.353 20.9167 136.153 21.7167 136.737 22.75C137.32 23.7833 137.612 25 137.612 26.4C137.612 26.5333 137.603 26.6833 137.587 26.85C137.587 27.0167 137.578 27.175 137.562 27.325H126.437V25.25H135.912L134.687 25.9C134.703 25.1333 134.545 24.4583 134.212 23.875C133.878 23.2917 133.42 22.8333 132.837 22.5C132.27 22.1667 131.612 22 130.862 22C130.095 22 129.42 22.1667 128.837 22.5C128.27 22.8333 127.82 23.3 127.487 23.9C127.17 24.4833 127.012 25.175 127.012 25.975V26.475C127.012 27.275 127.195 27.9833 127.562 28.6C127.928 29.2167 128.445 29.6917 129.112 30.025C129.778 30.3583 130.545 30.525 131.412 30.525C132.162 30.525 132.837 30.4083 133.437 30.175C134.037 29.9417 134.57 29.575 135.037 29.075L136.712 31C136.112 31.7 135.353 32.2417 134.437 32.625C133.537 32.9917 132.503 33.175 131.337 33.175Z" fill="white"/>
<path d="M41.2688 41.3086C41.2456 41.0915 41.1478 40.9225 40.9755 40.8015C40.8048 40.6805 40.5827 40.62 40.3093 40.62C40.1171 40.62 39.9522 40.649 39.8146 40.707C39.6771 40.765 39.5719 40.8437 39.4989 40.9432C39.426 41.0426 39.3887 41.1561 39.3871 41.2837C39.3871 41.3898 39.4111 41.4818 39.4592 41.5597C39.5089 41.6375 39.576 41.7038 39.6605 41.7585C39.745 41.8116 39.8387 41.8563 39.9414 41.8928C40.0442 41.9292 40.1477 41.9599 40.2521 41.9847L40.7294 42.104C40.9216 42.1488 41.1064 42.2093 41.2837 42.2855C41.4627 42.3617 41.6226 42.4579 41.7635 42.5739C41.906 42.6899 42.0187 42.8299 42.1016 42.994C42.1844 43.158 42.2259 43.3503 42.2259 43.5707C42.2259 43.869 42.1496 44.1316 41.9972 44.3587C41.8447 44.584 41.6243 44.7605 41.3359 44.8881C41.0492 45.0141 40.7021 45.0771 40.2944 45.0771C39.8983 45.0771 39.5545 45.0157 39.2628 44.8931C38.9728 44.7705 38.7457 44.5915 38.5817 44.3562C38.4193 44.1209 38.3314 43.8342 38.3182 43.4961H39.2255C39.2388 43.6734 39.2934 43.8209 39.3896 43.9386C39.4857 44.0562 39.6108 44.1441 39.7649 44.2021C39.9207 44.2601 40.0947 44.2891 40.2869 44.2891C40.4875 44.2891 40.6631 44.2592 40.8139 44.1996C40.9664 44.1383 41.0857 44.0537 41.1719 43.946C41.258 43.8366 41.302 43.709 41.3036 43.5632C41.302 43.4306 41.263 43.3213 41.1868 43.2351C41.1106 43.1473 41.0037 43.0743 40.8661 43.0163C40.7302 42.9567 40.5711 42.9036 40.3888 42.8572L39.8097 42.7081C39.3904 42.6004 39.0589 42.4371 38.8153 42.2184C38.5734 41.998 38.4524 41.7055 38.4524 41.3409C38.4524 41.041 38.5336 40.7783 38.696 40.5529C38.8601 40.3275 39.083 40.1527 39.3647 40.0284C39.6464 39.9025 39.9654 39.8395 40.3217 39.8395C40.683 39.8395 40.9995 39.9025 41.2713 40.0284C41.5447 40.1527 41.7594 40.3259 41.9151 40.5479C42.0709 40.7683 42.1513 41.0219 42.1562 41.3086H41.2688ZM54.667 42.4545C54.667 43.0031 54.5643 43.4729 54.3588 43.864C54.155 44.2534 53.8766 44.5517 53.5236 44.7589C53.1722 44.966 52.7737 45.0696 52.3279 45.0696C51.8821 45.0696 51.4827 44.966 51.1297 44.7589C50.7784 44.5501 50.5 44.2509 50.2945 43.8615C50.0907 43.4704 49.9888 43.0014 49.9888 42.4545C49.9888 41.906 50.0907 41.437 50.2945 41.0476C50.5 40.6565 50.7784 40.3574 51.1297 40.1502C51.4827 39.9431 51.8821 39.8395 52.3279 39.8395C52.7737 39.8395 53.1722 39.9431 53.5236 40.1502C53.8766 40.3574 54.155 40.6565 54.3588 41.0476C54.5643 41.437 54.667 41.906 54.667 42.4545ZM53.7398 42.4545C53.7398 42.0684 53.6793 41.7428 53.5584 41.4776C53.4391 41.2108 53.2733 41.0095 53.0612 40.8736C52.8491 40.736 52.6047 40.6673 52.3279 40.6673C52.0511 40.6673 51.8067 40.736 51.5946 40.8736C51.3825 41.0095 51.2159 41.2108 51.0949 41.4776C50.9756 41.7428 50.916 42.0684 50.916 42.4545C50.916 42.8407 50.9756 43.1671 51.0949 43.4339C51.2159 43.6991 51.3825 43.9004 51.5946 44.038C51.8067 44.1739 52.0511 44.2418 52.3279 44.2418C52.6047 44.2418 52.8491 44.1739 53.0612 44.038C53.2733 43.9004 53.4391 43.6991 53.5584 43.4339C53.6793 43.1671 53.7398 42.8407 53.7398 42.4545ZM62.6089 45V39.9091H63.5312V44.2269H65.7733V45H62.6089ZM76.8529 39.9091H77.7752V43.2351C77.7752 43.5997 77.689 43.9203 77.5166 44.1971C77.3459 44.4738 77.1057 44.6901 76.7958 44.8459C76.4859 45 76.1238 45.0771 75.7095 45.0771C75.2935 45.0771 74.9306 45 74.6207 44.8459C74.3108 44.6901 74.0705 44.4738 73.8998 44.1971C73.7291 43.9203 73.6438 43.5997 73.6438 43.2351V39.9091H74.566V43.158C74.566 43.3701 74.6124 43.5591 74.7052 43.7248C74.7997 43.8905 74.9322 44.0206 75.1029 44.1151C75.2736 44.2079 75.4758 44.2543 75.7095 44.2543C75.9431 44.2543 76.1453 44.2079 76.316 44.1151C76.4883 44.0206 76.6209 43.8905 76.7137 43.7248C76.8065 43.5591 76.8529 43.3701 76.8529 43.158V39.9091ZM85.6238 40.6822V39.9091H89.6856V40.6822H88.1121V45H87.1973V40.6822H85.6238ZM98.4609 39.9091V45H97.5387V39.9091H98.4609ZM111.079 42.4545C111.079 43.0031 110.976 43.4729 110.77 43.864C110.566 44.2534 110.288 44.5517 109.935 44.7589C109.584 44.966 109.185 45.0696 108.739 45.0696C108.294 45.0696 107.894 44.966 107.541 44.7589C107.19 44.5501 106.912 44.2509 106.706 43.8615C106.502 43.4704 106.4 43.0014 106.4 42.4545C106.4 41.906 106.502 41.437 106.706 41.0476C106.912 40.6565 107.19 40.3574 107.541 40.1502C107.894 39.9431 108.294 39.8395 108.739 39.8395C109.185 39.8395 109.584 39.9431 109.935 40.1502C110.288 40.3574 110.566 40.6565 110.77 41.0476C110.976 41.437 111.079 41.906 111.079 42.4545ZM110.151 42.4545C110.151 42.0684 110.091 41.7428 109.97 41.4776C109.851 41.2108 109.685 41.0095 109.473 40.8736C109.261 40.736 109.016 40.6673 108.739 40.6673C108.463 40.6673 108.218 40.736 108.006 40.8736C107.794 41.0095 107.627 41.2108 107.506 41.4776C107.387 41.7428 107.327 42.0684 107.327 42.4545C107.327 42.8407 107.387 43.1671 107.506 43.4339C107.627 43.6991 107.794 43.9004 108.006 44.038C108.218 44.1739 108.463 44.2418 108.739 44.2418C109.016 44.2418 109.261 44.1739 109.473 44.038C109.685 43.9004 109.851 43.6991 109.97 43.4339C110.091 43.1671 110.151 42.8407 110.151 42.4545ZM123.204 39.9091V45H122.384L119.985 41.5323H119.943V45H119.02V39.9091H119.846L122.242 43.3793H122.287V39.9091H123.204ZM134.046 41.3086C134.022 41.0915 133.925 40.9225 133.752 40.8015C133.582 40.6805 133.36 40.62 133.086 40.62C132.894 40.62 132.729 40.649 132.591 40.707C132.454 40.765 132.349 40.8437 132.276 40.9432C132.203 41.0426 132.166 41.1561 132.164 41.2837C132.164 41.3898 132.188 41.4818 132.236 41.5597C132.286 41.6375 132.353 41.7038 132.437 41.7585C132.522 41.8116 132.615 41.8563 132.718 41.8928C132.821 41.9292 132.925 41.9599 133.029 41.9847L133.506 42.104C133.698 42.1488 133.883 42.2093 134.061 42.2855C134.24 42.3617 134.399 42.4579 134.54 42.5739C134.683 42.6899 134.795 42.8299 134.878 42.994C134.961 43.158 135.003 43.3503 135.003 43.5707C135.003 43.869 134.926 44.1316 134.774 44.3587C134.621 44.584 134.401 44.7605 134.113 44.8881C133.826 45.0141 133.479 45.0771 133.071 45.0771C132.675 45.0771 132.331 45.0157 132.04 44.8931C131.75 44.7705 131.523 44.5915 131.358 44.3562C131.196 44.1209 131.108 43.8342 131.095 43.4961H132.002C132.016 43.6734 132.07 43.8209 132.166 43.9386C132.262 44.0562 132.388 44.1441 132.542 44.2021C132.697 44.2601 132.871 44.2891 133.064 44.2891C133.264 44.2891 133.44 44.2592 133.591 44.1996C133.743 44.1383 133.862 44.0537 133.949 43.946C134.035 43.8366 134.079 43.709 134.08 43.5632C134.079 43.4306 134.04 43.3213 133.964 43.2351C133.887 43.1473 133.78 43.0743 133.643 43.0163C133.507 42.9567 133.348 42.9036 133.166 42.8572L132.586 42.7081C132.167 42.6004 131.836 42.4371 131.592 42.2184C131.35 41.998 131.229 41.7055 131.229 41.3409C131.229 41.041 131.31 40.7783 131.473 40.5529C131.637 40.3275 131.86 40.1527 132.141 40.0284C132.423 39.9025 132.742 39.8395 133.099 39.8395C133.46 39.8395 133.776 39.9025 134.048 40.0284C134.322 40.1527 134.536 40.3259 134.692 40.5479C134.848 40.7683 134.928 41.0219 134.933 41.3086H134.046Z" fill="#E0E0E0"/>
</svg>
