<svg width="406" height="575" viewBox="0 0 406 575" fill="none" xmlns="http://www.w3.org/2000/svg">
<path fill-rule="evenodd" clip-rule="evenodd" d="M0 523.458C37.0182 543.576 79.4274 555.001 124.5 555.001C268.922 555.001 386 437.699 386 293.001C386 148.302 268.922 31.0009 124.5 31.0009C79.4274 31.0009 37.0182 42.4259 0 62.5432V523.458Z" fill="#DCE8F1"/>
<path fill-rule="evenodd" clip-rule="evenodd" d="M0 545.991C37.5363 564.564 79.8015 575.001 124.5 575.001C279.968 575.001 406 448.745 406 293.001C406 137.257 279.968 11.0009 124.5 11.0009C79.8015 11.0009 37.5363 21.4373 0 40.0105V42.2445C37.4899 23.5281 79.768 13.0009 124.5 13.0009C278.86 13.0009 404 138.358 404 293.001C404 447.644 278.86 573.001 124.5 573.001C79.768 573.001 37.4899 562.474 0 543.757V545.991Z" fill="#DCE8F1"/>
<path d="M199.283 22.0709L174.082 29.5358L180.218 3.97858L199.283 22.0709Z" fill="#DCE8F1"/>
</svg>
