<svg width="157" height="56" viewBox="0 0 157 56" fill="none" xmlns="http://www.w3.org/2000/svg">
<path d="M9.85946 9.71H6.15446V14H4.84946V3.8H10.3095V5.03H6.15446V8.48H9.85946V9.71ZM17.8423 9.83V10.73C17.8423 11.79 17.5673 12.625 17.0173 13.235C16.4773 13.845 15.7023 14.15 14.6923 14.15C13.6923 14.15 12.9173 13.845 12.3673 13.235C11.8173 12.625 11.5423 11.79 11.5423 10.73V9.83C11.5423 8.79 11.8123 7.965 12.3523 7.355C12.9023 6.735 13.6823 6.425 14.6923 6.425C15.7023 6.425 16.4773 6.735 17.0173 7.355C17.5673 7.965 17.8423 8.79 17.8423 9.83ZM16.5673 9.83C16.5673 9.12 16.4073 8.565 16.0873 8.165C15.7673 7.755 15.3023 7.55 14.6923 7.55C14.0923 7.55 13.6273 7.755 13.2973 8.165C12.9773 8.565 12.8173 9.12 12.8173 9.83V10.73C12.8173 11.47 12.9773 12.04 13.2973 12.44C13.6273 12.84 14.0923 13.04 14.6923 13.04C15.3023 13.04 15.7673 12.84 16.0873 12.44C16.4073 12.04 16.5673 11.47 16.5673 10.73V9.83ZM20.0625 12.2V2.9H21.2925V12.14C21.2925 12.41 21.3325 12.615 21.4125 12.755C21.5025 12.885 21.6775 12.95 21.9375 12.95H22.1775V14.075H21.8325C21.1725 14.075 20.7125 13.9 20.4525 13.55C20.1925 13.2 20.0625 12.75 20.0625 12.2ZM24.0176 12.2V2.9H25.2476V12.14C25.2476 12.41 25.2876 12.615 25.3676 12.755C25.4576 12.885 25.6326 12.95 25.8926 12.95H26.1326V14.075H25.7876C25.1276 14.075 24.6676 13.9 24.4076 13.55C24.1476 13.2 24.0176 12.75 24.0176 12.2ZM33.8677 9.83V10.73C33.8677 11.79 33.5927 12.625 33.0427 13.235C32.5027 13.845 31.7277 14.15 30.7177 14.15C29.7177 14.15 28.9427 13.845 28.3927 13.235C27.8427 12.625 27.5677 11.79 27.5677 10.73V9.83C27.5677 8.79 27.8377 7.965 28.3777 7.355C28.9277 6.735 29.7077 6.425 30.7177 6.425C31.7277 6.425 32.5027 6.735 33.0427 7.355C33.5927 7.965 33.8677 8.79 33.8677 9.83ZM32.5927 9.83C32.5927 9.12 32.4327 8.565 32.1127 8.165C31.7927 7.755 31.3277 7.55 30.7177 7.55C30.1177 7.55 29.6527 7.755 29.3227 8.165C29.0027 8.565 28.8427 9.12 28.8427 9.83V10.73C28.8427 11.47 29.0027 12.04 29.3227 12.44C29.6527 12.84 30.1177 13.04 30.7177 13.04C31.3277 13.04 31.7927 12.84 32.1127 12.44C32.4327 12.04 32.5927 11.47 32.5927 10.73V9.83ZM44.9993 6.575L43.0943 14H41.6693L40.1093 7.91L38.5043 14H37.0793L35.1893 6.575H36.4493L37.1993 9.68L37.8743 12.755L39.4793 6.575H40.7843L42.3893 12.785L43.0493 9.695L43.7843 6.575H44.9993ZM54.6232 14V12.95C54.1032 13.4 53.6382 13.715 53.2282 13.895C52.8182 14.065 52.4082 14.15 51.9982 14.15C51.3382 14.15 50.8332 13.935 50.4832 13.505C50.1332 13.065 49.9582 12.45 49.9582 11.66V6.575H51.1882V11.48C51.1882 12 51.2782 12.385 51.4582 12.635C51.6482 12.875 51.9282 12.995 52.2982 12.995C52.5782 12.995 52.8932 12.925 53.2432 12.785C53.5932 12.645 54.0282 12.365 54.5482 11.945V6.575H55.7782V14H54.6232ZM60.2421 13.055C61.2421 13.055 61.7421 12.715 61.7421 12.035C61.7421 11.745 61.6521 11.515 61.4721 11.345C61.2921 11.175 60.9621 11.03 60.4821 10.91L59.6571 10.7C59.0471 10.55 58.5921 10.29 58.2921 9.92C57.9921 9.54 57.8421 9.09 57.8421 8.57C57.8421 8.19 57.9271 7.84 58.0971 7.52C58.2671 7.19 58.5371 6.925 58.9071 6.725C59.2771 6.525 59.7571 6.425 60.3471 6.425C60.7271 6.425 61.1121 6.47 61.5021 6.56C61.9021 6.64 62.3071 6.78 62.7171 6.98L62.3271 8.015C61.5971 7.685 60.9371 7.52 60.3471 7.52C59.4771 7.52 59.0421 7.845 59.0421 8.495C59.0421 8.745 59.1221 8.96 59.2821 9.14C59.4421 9.32 59.7421 9.465 60.1821 9.575L61.0071 9.785C61.6671 9.945 62.1521 10.205 62.4621 10.565C62.7721 10.925 62.9271 11.39 62.9271 11.96C62.9271 12.37 62.8371 12.745 62.6571 13.085C62.4871 13.415 62.2071 13.675 61.8171 13.865C61.4371 14.055 60.9221 14.15 60.2721 14.15C59.8421 14.15 59.4121 14.105 58.9821 14.015C58.5621 13.925 58.1271 13.78 57.6771 13.58L58.0071 12.56C58.4371 12.73 58.8271 12.855 59.1771 12.935C59.5271 13.015 59.8821 13.055 60.2421 13.055ZM74.0337 9.83V10.73C74.0337 11.79 73.7587 12.625 73.2087 13.235C72.6687 13.845 71.8937 14.15 70.8837 14.15C69.8837 14.15 69.1087 13.845 68.5587 13.235C68.0087 12.625 67.7337 11.79 67.7337 10.73V9.83C67.7337 8.79 68.0037 7.965 68.5437 7.355C69.0937 6.735 69.8737 6.425 70.8837 6.425C71.8937 6.425 72.6687 6.735 73.2087 7.355C73.7587 7.965 74.0337 8.79 74.0337 9.83ZM72.7587 9.83C72.7587 9.12 72.5987 8.565 72.2787 8.165C71.9587 7.755 71.4937 7.55 70.8837 7.55C70.2837 7.55 69.8187 7.755 69.4887 8.165C69.1687 8.565 69.0087 9.12 69.0087 9.83V10.73C69.0087 11.47 69.1687 12.04 69.4887 12.44C69.8187 12.84 70.2837 13.04 70.8837 13.04C71.4937 13.04 71.9587 12.84 72.2787 12.44C72.5987 12.04 72.7587 11.47 72.7587 10.73V9.83ZM79.8389 7.58C79.5589 7.58 79.2289 7.65 78.8489 7.79C78.4789 7.93 78.0289 8.215 77.4989 8.645V14H76.2689V6.575H77.4389V7.61C77.9689 7.16 78.4489 6.85 78.8789 6.68C79.3189 6.51 79.7389 6.425 80.1389 6.425C80.8289 6.425 81.3539 6.645 81.7139 7.085C82.0839 7.515 82.2689 8.13 82.2689 8.93V14H81.0389V9.11C81.0389 8.09 80.6389 7.58 79.8389 7.58Z" fill="white"/>
<path d="M106.934 55.9873L93.6079 56C90.6761 56.0027 88.2754 53.6066 88.2721 50.6748L88.2594 37.3485C88.2567 34.4167 90.6528 32.016 93.5846 32.0127L106.911 32C109.843 31.9973 112.243 34.3934 112.247 37.3252L112.259 50.6515C112.263 53.5839 109.866 55.9847 106.934 55.9873Z" fill="#BFC2C6"/>
<path d="M106.934 55.9873L93.6079 56C90.6761 56.0027 88.2754 53.6066 88.2721 50.6748L88.2594 37.3485C88.2567 34.4167 90.6528 32.016 93.5846 32.0127L106.911 32C109.843 31.9973 112.243 34.3934 112.247 37.3252L112.259 50.6515C112.263 53.5839 109.866 55.9847 106.934 55.9873Z" fill="#FF2E63"/>
<path d="M100.26 48.6643C97.6882 48.6643 95.5953 46.5721 95.5953 44.0001C95.5953 41.4282 97.6882 39.3359 100.26 39.3359C102.831 39.3359 104.924 41.4282 104.924 44.0001C104.924 46.5721 102.831 48.6643 100.26 48.6643ZM100.26 40.6686C98.4225 40.6686 96.928 42.1631 96.928 44.0001C96.928 45.8372 98.4225 47.3317 100.26 47.3317C102.097 47.3317 103.591 45.8372 103.591 44.0001C103.591 42.1631 102.097 40.6686 100.26 40.6686Z" fill="white"/>
<path d="M105.257 40.0029C105.809 40.0029 106.256 39.5554 106.256 39.0034C106.256 38.4514 105.809 38.0039 105.257 38.0039C104.705 38.0039 104.257 38.4514 104.257 39.0034C104.257 39.5554 104.705 40.0029 105.257 40.0029Z" fill="white"/>
<path d="M104.258 52.6616H96.262C93.6907 52.6616 91.5978 50.5694 91.5978 47.9974V40.0016C91.5978 37.4296 93.6907 35.3374 96.262 35.3374H104.258C106.829 35.3374 108.922 37.4296 108.922 40.0016V47.9974C108.922 50.5694 106.829 52.6616 104.258 52.6616ZM96.262 36.67C94.425 36.67 92.9304 38.1646 92.9304 40.0016V47.9974C92.9304 49.8344 94.425 51.329 96.262 51.329H104.258C106.095 51.329 107.589 49.8344 107.589 47.9974V40.0016C107.589 38.1646 106.095 36.67 104.258 36.67H96.262Z" fill="white"/>
<path d="M156.259 52.6667C156.259 54.508 154.767 56 152.926 56H135.593C133.752 56 132.259 54.508 132.259 52.6667V35.3333C132.259 33.492 133.752 32 135.593 32H152.926C154.767 32 156.259 33.492 156.259 35.3333V52.6667Z" fill="#FF2E63"/>
<path d="M153.26 39.6544C152.598 39.9373 151.887 40.1261 151.136 40.2154C151.899 39.778 152.486 39.0804 152.762 38.2563C152.048 38.6604 151.257 38.9573 150.415 39.1137C149.743 38.4258 148.785 37.999 147.723 37.999C145.683 37.999 144.03 39.5815 144.03 41.5328C144.03 41.809 144.063 42.0779 144.126 42.339C141.058 42.1903 138.336 40.7816 136.515 38.644C136.195 39.1663 136.015 39.778 136.015 40.4234C136.015 41.6501 136.665 42.7301 137.657 43.3663C137.052 43.3485 136.482 43.1858 135.983 42.9251C135.983 42.9357 135.983 42.9516 135.983 42.9666C135.983 44.6809 137.256 46.1084 138.944 46.4333C138.636 46.5149 138.31 46.5603 137.974 46.5603C137.735 46.5603 137.503 46.5342 137.278 46.4951C137.748 47.8961 139.111 48.92 140.727 48.9504C139.463 49.8966 137.871 50.4634 136.14 50.4634C135.841 50.4634 135.548 50.447 135.26 50.4132C136.895 51.413 138.837 51.999 140.921 51.999C147.713 51.999 151.429 46.6134 151.429 41.9412C151.429 41.7882 151.424 41.6356 151.416 41.485C152.141 40.9907 152.766 40.367 153.26 39.6544Z" fill="white"/>
<path d="M68.2595 52.6667C68.2595 54.508 66.7675 56 64.9261 56H47.5928C45.7521 56 44.2595 54.508 44.2595 52.6667V35.3333C44.2595 33.492 45.7521 32 47.5928 32H64.9261C66.7675 32 68.2595 33.492 68.2595 35.3333V52.6667Z" fill="#FF2E63"/>
<path d="M48.2595 40.6652H51.5928V51.9985H48.2595V40.6652ZM49.9161 39.3319H49.8975C48.9028 39.3319 48.2595 38.5905 48.2595 37.6645C48.2595 36.7185 48.9228 35.9985 49.9355 35.9985C50.9495 35.9985 51.5741 36.7185 51.5928 37.6645C51.5928 38.5899 50.9495 39.3319 49.9161 39.3319ZM64.2595 51.9985H60.9261V45.9325C60.9261 44.4672 60.1095 43.4672 58.7981 43.4672C57.7975 43.4672 57.2561 44.1419 56.9935 44.7939C56.8975 45.0272 56.9261 45.6725 56.9261 45.9985V51.9985H53.5928V40.6652H56.9261V42.4092C57.4068 41.6652 58.1595 40.6652 60.0848 40.6652C62.4701 40.6652 64.2588 42.1652 64.2588 45.5145L64.2595 51.9985Z" fill="white"/>
<rect x="6.25946" y="37" width="14" height="19" fill="white"/>
<path d="M21.4024 32H3.11666C1.53952 32 0.259521 33.28 0.259521 34.8571V53.1429C0.259521 54.72 1.53952 56 3.11666 56H21.4024C22.9795 56 24.2595 54.72 24.2595 53.1429V34.8571C24.2595 33.28 22.9795 32 21.4024 32ZM19.1167 40.5714H17.9738C16.751 40.5714 16.2595 40.8571 16.2595 41.7143V43.4286H19.1167L18.5452 46.2857H16.2595V54.8571H13.4024V46.2857H11.1167V43.4286H13.4024V41.7143C13.4024 39.4286 14.5452 37.7143 16.831 37.7143C18.4881 37.7143 19.1167 38.2857 19.1167 38.2857V40.5714Z" fill="#FF2E63"/>
</svg>
